<svg fill="none" viewBox="0 0 599 200" xmlns="http://www.w3.org/2000/svg">
    <rect id="leftRect" fill="#333" height="172.813" rx="2.495" width="276.376"/>
    <g id="leftContents" clip-path="url(#a)">
        <rect fill="var(--vscode-editor-background)" height="162.831" rx="1.248" width="266.394" x="4.991" y="4.991"/>
        <path d="M4.991 4.991h266.394v18.716H4.991z" fill="var(--vscode-editor-background)"/>
        <g filter="url(#b)">
            <mask height="9" id="c" mask-type="alpha" maskUnits="userSpaceOnUse" width="10" x="11" y="10">
                <path clip-rule="evenodd" d="M18.048 18.657c.137.053.294.05.433-.017l1.798-.865a.546.546 0 0 0 .31-.492v-5.867c0-.21-.12-.401-.31-.492l-1.798-.866a.544.544 0 0 0-.62.106l-3.443 3.14-1.5-1.138a.364.364 0 0 0-.464.021l-.48.438a.364.364 0 0 0-.001.538l1.3 1.186-1.3 1.187a.364.364 0 0 0 0 .538l.481.437c.13.118.325.127.464.021l1.5-1.138 3.442 3.14a.543.543 0 0 0 .188.123Zm.358-6.29-2.612 1.982 2.612 1.983v-3.966Z" fill="#fff" fill-rule="evenodd"/>
            </mask>
            <g mask="url(#c)">
                <path d="m20.28 10.925-1.8-.867a.544.544 0 0 0-.621.106l-5.892 5.372a.364.364 0 0 0 0 .538l.482.437c.13.118.325.127.465.02l7.094-5.381c.238-.18.58-.011.58.288v-.021c0-.21-.12-.401-.309-.492Z" fill="#0065A9"/>
                <g filter="url(#d)">
                    <path d="m20.28 17.773-1.8.867a.544.544 0 0 1-.621-.106l-5.892-5.371a.364.364 0 0 1 0-.538l.482-.438a.364.364 0 0 1 .465-.02l7.094 5.382c.238.18.58.01.58-.288v.02c0 .21-.12.401-.309.492Z" fill="#007ACC"/>
                </g>
                <g filter="url(#e)">
                    <path d="M18.48 18.64a.544.544 0 0 1-.621-.106.32.32 0 0 0 .546-.226V10.39a.32.32 0 0 0-.546-.226.544.544 0 0 1 .62-.106l1.8.866c.19.09.31.282.31.492v5.867c0 .21-.12.4-.31.492l-1.8.865Z" fill="#1F9CF0"/>
                </g>
                <path clip-rule="evenodd" d="M18.042 18.657c.138.053.295.05.433-.017l1.799-.865a.546.546 0 0 0 .309-.492v-5.867c0-.21-.12-.401-.31-.492l-1.797-.866a.544.544 0 0 0-.62.106l-3.443 3.14-1.5-1.138a.364.364 0 0 0-.464.021l-.481.438a.364.364 0 0 0 0 .538l1.3 1.186-1.3 1.187a.364.364 0 0 0 0 .538l.48.437c.13.118.325.127.465.021l1.5-1.138 3.442 3.14a.543.543 0 0 0 .187.123Zm.359-6.29-2.612 1.982 2.612 1.983v-3.966Z" fill="url(#f)" fill-rule="evenodd" opacity=".25" style="mix-blend-mode:overlay"/>
            </g>
        </g>
        <rect fill="var(--vscode-tab-unfocusedInactiveForeground)" height="4.367" rx="2.184" width="18.092" x="31.193" y="12.166"/>
        <rect fill="var(--vscode-tab-unfocusedInactiveForeground)" height="4.367" rx="2.184" width="13.725" x="55.524" y="12.166"/>
        <rect fill="var(--vscode-tab-unfocusedInactiveForeground)" height="4.367" rx="2.184" width="18.716" x="75.488" y="12.166"/>
        <path d="M231.458 14.12v.618H224.6v-.619h6.858ZM239.573 10.995v6.239h6.238v-6.239h-6.238Zm5.609 5.62h-4.991v-4.991h4.991v4.99ZM257.111 14.12l-2.845 2.844.549.55 2.845-2.846 2.845 2.845.549-.549-2.845-2.845 2.845-2.845-.549-.548-2.845 2.844-2.845-2.845-.549.55 2.845 2.844Z" fill="var(--vscode-tab-unfocusedInactiveForeground)"/>
        <path d="M4.991 23.707h69v142h-69z" fill="var(--vscode-sideBar-background)"/>
        <rect fill="var(--vscode-tab-unfocusedInactiveForeground)" height="4.367" rx="2.184" width="26.203" x="13.726" y="31.818"/>
        <path d="m20.014 48.442-2.725-2.715.39-.39 2.914 2.915v.39l-2.915 2.904-.39-.379 2.726-2.715v-.01Z" fill="var(--vscode-tab-unfocusedInactiveForeground)"/>
        <rect fill="var(--vscode-tab-unfocusedInactiveForeground)" height="4.367" rx="2.184" width="37.432" x="28.698" y="46.478"/>
        <path d="M20.014 63.416 17.289 60.7l.39-.389 2.914 2.915v.39l-2.915 2.904-.39-.38 2.726-2.715v-.01Z" fill="var(--vscode-tab-unfocusedInactiveForeground)"/>
        <rect fill="var(--vscode-tab-unfocusedInactiveForeground)" height="4.367" rx="2.184" width="23.083" x="28.698" y="61.452"/>
        <path d="m20.014 78.388-2.725-2.715.39-.39 2.914 2.915v.39l-2.915 2.904-.39-.379 2.726-2.715v-.01Z" fill="var(--vscode-tab-unfocusedInactiveForeground)"/>
        <rect fill="var(--vscode-tab-unfocusedInactiveForeground)" height="4.367" rx="2.184" width="31.194" x="28.698" y="76.424"/>
        <path d="m20.014 93.361-2.725-2.715.39-.39 2.914 2.915v.39l-2.915 2.904-.39-.379 2.726-2.715v-.01Z" fill="var(--vscode-tab-unfocusedInactiveForeground)"/>
        <rect fill="var(--vscode-tab-unfocusedInactiveForeground)" height="4.367" rx="2.184" width="26.203" x="28.698" y="91.397"/>
        <path d="m20.014 108.334-2.725-2.715.39-.389 2.914 2.915v.389l-2.915 2.905-.39-.38 2.726-2.715v-.01Z" fill="var(--vscode-tab-unfocusedInactiveForeground)"/>
        <rect fill="var(--vscode-tab-unfocusedInactiveForeground)" height="4.367" rx="2.184" width="29.946" x="28.698" y="106.37"/>
        <path d="m20.014 123.307-2.725-2.715.39-.39 2.914 2.915v.389l-2.915 2.905-.39-.379 2.726-2.715v-.01Z" fill="var(--vscode-tab-unfocusedInactiveForeground)"/>
        <rect fill="var(--vscode-tab-unfocusedInactiveForeground)" height="4.367" rx="2.184" width="34.937" x="28.698" y="121.343"/>
        <path d="M73.992 23.707H270.76v19.964H73.992z" fill="var(--vscode-editorGroupHeader-tabsBackground, #252526)"/>
        <g clip-path="url(#g)">
            <path d="M73.992 24.19h72.153v19H73.992z" fill="var(--vscode-tab-activeBackground, #1e1e1e)"/>
            <rect fill="var(--vscode-tab-unfocusedInactiveForeground)" height="4.904" rx="2.452" width="55.341" x="82.398" y="31.237"/>
        </g>
        <rect fill="#B180D7" height="4.991" rx="2.495" width="21.212" x="88.965" y="63.012"/>
        <rect fill="#007ACC" height="4.991" rx="2.495" width="61.14" x="88.965" y="134.757"/>
        <rect fill="#B180D7" height="4.991" rx="2.495" width="61.14" x="130.141" y="91.085"/>
        <rect fill="#B180D7" height="4.991" rx="2.495" width="39.928" x="88.965" y="102.939"/>
        <rect fill="#B180D7" height="4.991" rx="2.495" width="25.579" x="88.965" y="114.793"/>
        <rect fill="#F14C4C" height="4.991" rx="2.495" width="39.928" x="132.636" y="102.939"/>
        <rect fill="#F14C4C" height="4.991" rx="2.495" width="54.277" x="118.288" y="114.793"/>
        <rect fill="#D7BA7D" height="4.991" rx="2.495" width="37.432" x="153.849" y="134.757"/>
        <rect fill="#D7BA7D" height="4.991" rx="2.495" width="37.432" x="88.965" y="91.085"/>
        <rect fill="#8ADDFF" height="4.991" rx="2.495" width="66.754" x="113.92" y="63.011"/>
        <path d="M4.991 162.831h266.394v4.991H4.991z" fill="var(--vscode-statusBar-background)"/>
    </g>
    <path d="M113.544 172.813h49.286v22.459h-49.286z" fill="#333"/>
    <path d="M63.634 192.153h149.73v7.486H63.634z" fill="#333"/>
    <path d="M342.707 109.707a.999.999 0 0 0 0-1.414l-6.364-6.364a.999.999 0 1 0-1.414 1.414l5.657 5.657-5.657 5.657a.999.999 0 1 0 1.414 1.414l6.364-6.364ZM299 110h2.688v-2H299v2Zm8.063 0h5.375v-2h-5.375v2Zm10.75 0h5.375v-2h-5.375v2Zm10.75 0h5.375v-2h-5.375v2Zm10.75 0H342v-2h-2.687v2ZM298.293 90.293a1 1 0 0 0 0 1.414l6.364 6.364a1 1 0 1 0 1.414-1.414L300.414 91l5.657-5.657a1 1 0 1 0-1.414-1.414l-6.364 6.364ZM299 92h2.688v-2H299v2Zm8.062 0h5.376v-2h-5.376v2Zm10.75 0h5.376v-2h-5.376v2Zm10.75 0h5.376v-2h-5.376v2Zm10.75 0H342v-2h-2.688v2Z" fill="#7F7F7F"/>
    <rect fill="#454545" height="153.474" rx="4.853" width="222.022" x="364.133" y="17.5"/>
    <g clip-path="url(#h)">
        <rect fill="var(--vscode-editor-background)" height="143.768" rx="1.213" width="212.316" x="368.986" y="22.353"/>
        <path d="M368.986 22.353h212.316v13.346H368.986z" fill="var(--vscode-editor-background)"/>
        <circle cx="395.677" cy="29.026" fill="#40C8AE" r="2.426"/>
        <circle cx="387.185" cy="29.026" fill="#D7BA7D" r="2.426"/>
        <circle cx="378.692" cy="29.026" fill="#F14C4C" r="2.426"/>
        <path d="M368.986 35.699h67v128h-67z" fill="var(--vscode-sideBar-background)"/>
        <rect fill="var(--vscode-tab-unfocusedInactiveForeground)" height="4.246" rx="2.123" width="25.478" x="377.479" y="43.585"/>
        <path d="m383.593 60.054-2.65-2.64.379-.379 2.834 2.835v.378l-2.834 2.825-.379-.37 2.65-2.64v-.009Z" fill="var(--vscode-tab-unfocusedInactiveForeground)"/>
        <rect fill="var(--vscode-tab-unfocusedInactiveForeground)" height="4.246" rx="2.123" width="36.397" x="392.037" y="57.84"/>
        <path d="m383.593 74.613-2.65-2.64.379-.379 2.834 2.834v.379l-2.834 2.824-.379-.369 2.65-2.64v-.01Z" fill="var(--vscode-tab-unfocusedInactiveForeground)"/>
        <rect fill="var(--vscode-tab-unfocusedInactiveForeground)" height="4.246" rx="2.123" width="22.445" x="392.037" y="72.399"/>
        <path d="m383.593 89.172-2.65-2.64.379-.379 2.834 2.834v.379l-2.834 2.824-.379-.369 2.65-2.64v-.01Z" fill="var(--vscode-tab-unfocusedInactiveForeground)"/>
        <rect fill="var(--vscode-tab-unfocusedInactiveForeground)" height="4.246" rx="2.123" width="30.331" x="392.037" y="86.958"/>
        <path d="m383.593 103.731-2.65-2.64.379-.379 2.834 2.834v.379l-2.834 2.824-.379-.369 2.65-2.64v-.009Z" fill="var(--vscode-tab-unfocusedInactiveForeground)"/>
        <rect fill="var(--vscode-tab-unfocusedInactiveForeground)" height="4.246" rx="2.123" width="25.478" x="392.037" y="101.517"/>
        <path d="m383.593 118.289-2.65-2.64.379-.378 2.834 2.834v.378l-2.834 2.825-.379-.369 2.65-2.64v-.01Z" fill="var(--vscode-tab-unfocusedInactiveForeground)"/>
        <rect fill="var(--vscode-tab-unfocusedInactiveForeground)" height="4.246" rx="2.123" width="29.118" x="392.037" y="116.076"/>
        <path d="m383.593 132.848-2.65-2.64.379-.378 2.834 2.834v.378l-2.834 2.825-.379-.369 2.65-2.64v-.01Z" fill="var(--vscode-tab-unfocusedInactiveForeground)"/>
        <rect fill="var(--vscode-tab-unfocusedInactiveForeground)" height="4.246" rx="2.123" width="33.971" x="392.037" y="130.635"/>
        <path d="M435.987 35.699h144.588V55.11H435.987z" fill="var(--vscode-editorGroupHeader-tabsBackground, #252526)"/>
        <g clip-path="url(#i)">
            <path d="M435.987 35.904h70.157v19h-70.157z" fill="var(--vscode-tab-activeBackground, #1e1e1e)"/>
            <rect fill="var(--vscode-tab-unfocusedInactiveForeground, #454545)" height="4.768" rx="2.384" width="53.81" x="444.161" y="43.02"/>
        </g>
        <rect fill="#B180D7" height="4.853" rx="2.426" width="20.625" x="450.546" y="73.916"/>
        <rect fill="#007ACC" height="4.853" rx="2.426" width="59.449" x="450.545" y="143.677"/>
        <rect fill="#B180D7" height="4.853" rx="2.426" width="59.449" x="490.583" y="101.214"/>
        <rect fill="#B180D7" height="4.853" rx="2.426" width="38.824" x="450.545" y="112.74"/>
        <rect fill="#B180D7" height="4.853" rx="2.426" width="24.871" x="450.545" y="124.265"/>
        <rect fill="#F14C4C" height="4.853" rx="2.426" width="38.824" x="493.008" y="112.74"/>
        <rect fill="#F14C4C" height="4.853" rx="2.426" width="52.776" x="479.058" y="124.265"/>
        <rect fill="#D7BA7D" height="4.853" rx="2.426" width="36.397" x="513.633" y="143.677"/>
        <rect fill="#D7BA7D" height="4.853" rx="2.426" width="36.397" x="450.545" y="101.214"/>
        <rect fill="#8ADDFF" height="4.853" rx="2.426" width="64.908" x="474.81" y="73.916"/>
        <path d="M368.986 161.269h212.316v4.853H368.986z" fill="var(--vscode-statusBar-background)"/>
    </g>
    <path d="M353.213 169.761H597.68v6.673a4.853 4.853 0 0 1-4.853 4.853H358.066a4.853 4.853 0 0 1-4.853-4.853v-6.673Z" fill="#454545"/>
    <defs>
        <clipPath id="a">
            <rect fill="#fff" height="162.831" rx="1.248" width="266.394" x="4.991" y="4.991"/>
        </clipPath>
        <clipPath id="g">
            <path d="M0 0h72.153v19.964H0z" fill="#fff" transform="translate(73.992 23.707)"/>
        </clipPath>
        <clipPath id="h">
            <rect fill="#fff" height="143.768" rx="1.213" width="212.316" x="368.986" y="22.353"/>
        </clipPath>
        <clipPath id="i">
            <path d="M0 0h70.157v19.412H0z" fill="#fff" transform="translate(435.987 35.699)"/>
        </clipPath>
        <filter color-interpolation-filters="sRGB" filterUnits="userSpaceOnUse" height="12.477" id="b" width="12.477" x="9.982" y="8.734">
            <feFlood flood-opacity="0" result="BackgroundImageFix"/>
            <feColorMatrix in="SourceAlpha" values="0 0 0 0 0 0 0 0 0 0 0 0 0 0 0 0 0 0 127 0"/>
            <feOffset dy=".624"/>
            <feGaussianBlur stdDeviation=".936"/>
            <feColorMatrix values="0 0 0 0 0 0 0 0 0 0 0 0 0 0 0 0 0 0 0.25 0"/>
            <feBlend in2="BackgroundImageFix" result="effect1_dropShadow"/>
            <feBlend in="SourceGraphic" in2="effect1_dropShadow" result="shape"/>
        </filter>
        <filter color-interpolation-filters="sRGB" filterUnits="userSpaceOnUse" height="15.335" id="d" width="17.474" x="7.482" y="7.725">
            <feFlood flood-opacity="0" result="BackgroundImageFix"/>
            <feColorMatrix in="SourceAlpha" values="0 0 0 0 0 0 0 0 0 0 0 0 0 0 0 0 0 0 127 0"/>
            <feOffset/>
            <feGaussianBlur stdDeviation="2.184"/>
            <feColorMatrix values="0 0 0 0 0 0 0 0 0 0 0 0 0 0 0 0 0 0 0.25 0"/>
            <feBlend in2="BackgroundImageFix" mode="overlay" result="effect1_dropShadow"/>
            <feBlend in="SourceGraphic" in2="effect1_dropShadow" result="shape"/>
        </filter>
        <filter color-interpolation-filters="sRGB" filterUnits="userSpaceOnUse" height="17.423" id="e" width="11.464" x="13.492" y="5.638">
            <feFlood flood-opacity="0" result="BackgroundImageFix"/>
            <feColorMatrix in="SourceAlpha" values="0 0 0 0 0 0 0 0 0 0 0 0 0 0 0 0 0 0 127 0"/>
            <feOffset/>
            <feGaussianBlur stdDeviation="2.184"/>
            <feColorMatrix values="0 0 0 0 0 0 0 0 0 0 0 0 0 0 0 0 0 0 0.25 0"/>
            <feBlend in2="BackgroundImageFix" mode="overlay" result="effect1_dropShadow"/>
            <feBlend in="SourceGraphic" in2="effect1_dropShadow" result="shape"/>
        </filter>
        <linearGradient gradientUnits="userSpaceOnUse" id="f" x1="16.216" x2="16.216" y1="10.005" y2="18.694">
            <stop stop-color="#fff"/>
            <stop offset="1" stop-color="#fff" stop-opacity="0"/>
        </linearGradient>
    </defs>
</svg>
